<?xml version="1.0" encoding="UTF-8"?>
<svg id="Layer_1" xmlns="http://www.w3.org/2000/svg" version="1.1" viewBox="0 0 2000 880">
  <!-- Generator: Adobe Illustrator 29.0.0, SVG Export Plug-In . SVG Version: 2.1.0 Build 186)  -->
  <defs>
    <style>
      .st0 {
        fill: #f88e2b;
      }

      .st1 {
        fill: #001b72;
      }
    </style>
  </defs>
  <g>
    <path class="st1" d="M820.9,359h50c1.7,14.7,9.9,22.3,28.4,22.3s23.6-5.1,23.6-14.7-3.8-11-13.4-12.3l-32.5-7.2c-39-8.2-51.7-29.4-51.7-53.1,0-35.3,30.5-55.8,74.6-55.8s74.3,24.7,74.3,64h-46.6c-2.1-16.4-12-22.3-27-22.3s-20.9,5.1-20.9,12.7,5.8,12.7,15.4,14l33.9,7.5c27.4,5.8,51.7,18.8,51.7,51s-37,57.9-81.8,57.9-78.4-21.9-78.1-64Z"/>
    <path class="st1" d="M998.3,241.6h56.1v178h-56.1v-178Z"/>
    <path class="st1" d="M995.9,194.3c0-17.5,14.4-30.1,30.5-30.1s30.1,12.7,30.1,30.1-14.4,30.1-30.1,30.1-30.5-13-30.5-30.1Z"/>
    <path class="st1" d="M1276.3,284.4c-15.1,0-28.1,9.9-28.1,35.3v100h-56.1v-100c0-25.3-10.6-35.3-25.7-35.3s-28.1,9.9-28.1,35.3v100h-56.1v-178h56.1v37.7h2.1c2.7-17.5,21.6-41.1,51-41.1s45.2,13.7,53.4,40.7c3.1-17.5,23.3-40.7,55.1-40.7s58.5,22.9,58.5,67.8v113.7h-56.2v-100c0-25.3-11-35.3-26-35.3Z"/>
    <path class="st1" d="M1386.2,241.6h56.1v24c4.8-13.4,22.9-27.4,49.3-27.4s77.4,26.7,77.4,92.4-41.1,92.4-77.4,92.4-44.5-14-49.3-27.4v70.3h-56.1v-224.4ZM1516.3,330.6c0-31.5-18.8-45.9-38.7-45.9s-37.7,14.4-37.7,45.9,18.1,45.9,37.7,45.9,38.7-14.4,38.7-45.9Z"/>
    <path class="st1" d="M1588.8,180h56.1v239.7h-56.1v-239.7Z"/>
    <path class="st1" d="M1663.5,329.9c0-66.4,43.1-91.8,90.7-91.8s86.3,22.9,86.3,92.4-.3,9.9-1,14h-122.9c3.1,26,16.8,36,38.7,36s30.5-9.6,33.6-21.2h49.3c-8.2,41.1-40.1,63.7-83.9,63.7s-90.7-24-90.7-93.1ZM1787.5,312.1c-1-15.4-8.9-31.5-34.6-31.5s-32.5,11-36,31.5h70.5Z"/>
    <path class="st1" d="M831.2,487.9h56.1v24c4.8-13.4,22.9-27.4,49.3-27.4s75.3,26.7,75.3,92.4-39,92.4-75.3,92.4-44.5-14-49.3-27.4v71.3h-56.1v-225.4ZM959.2,576.9c0-31.5-16.7-45.9-36.6-45.9s-37.7,14.4-37.7,45.9,18.1,45.9,37.7,45.9,36.6-14.4,36.6-45.9Z"/>
    <path class="st1" d="M1026.1,487.9h56.1v44.2h1c6.8-28.1,23.6-46.2,50.7-46.2s8.2.3,13.7,1.7v47.2c-2.2-.3-4.2-.5-6-.6-3-.3-5.6-.4-8.4-.4-24.7,0-51,12.7-51,57.5v74.6h-56.1v-178Z"/>
    <path class="st1" d="M1151.7,576.9c0-65.4,45.2-92.4,90.4-92.4s90.4,27,90.4,92.4-45.5,92.4-90.4,92.4-90.4-27-90.4-92.4ZM1279.8,576.9c0-31.5-16.1-45.9-37.7-45.9s-38,14.4-38,45.9,16.1,45.9,38,45.9,37.7-14.4,37.7-45.9Z"/>
    <path class="st1" d="M1343.6,576.9c0-65.4,45.2-92.4,90.4-92.4s90.4,27,90.4,92.4-45.5,92.4-90.4,92.4-90.4-27-90.4-92.4ZM1471.6,576.9c0-31.5-16.1-45.9-37.7-45.9s-38,14.4-38,45.9,16.1,45.9,38,45.9,37.7-14.4,37.7-45.9Z"/>
    <path class="st1" d="M1616.2,442.2h28.8v42.5h-15.4c-14.4,0-19.2,9.2-19.2,21.9v2.7h33.6v43.1h-33.6v113.5h-56.2v-113.5h-23.4v-43.1h23.4v-8.6c0-41.4,24.3-58.5,62-58.5Z"/>
  </g>
  <g>
    <polygon class="st1" points="651.6 294.5 405.3 440.4 296.6 375.6 296.6 459.1 404.9 524.2 651.6 378.5 651.6 294.6 651.6 294.5"/>
    <polygon class="st0" points="579.7 489.4 579.7 542 405.5 644.5 231.3 542 231.3 335.6 405.5 235 520.9 301.7 592.1 259.8 405.5 152.1 159.5 294.1 159.5 583.1 405.5 727.9 651.6 583.1 651.6 447.1 579.7 489.4"/>
  </g>
</svg>